<?xml version="1.0" standalone="no"?>
<!DOCTYPE svg PUBLIC "-//W3C//DTD SVG 20010904//EN"
 "http://www.w3.org/TR/2001/REC-SVG-20010904/DTD/svg10.dtd">
<svg version="1.0" xmlns="http://www.w3.org/2000/svg"
 width="256.000000pt" height="254.000000pt" viewBox="0 0 256.000000 254.000000"
 preserveAspectRatio="xMidYMid meet">

<!-- Added rectangle for white background -->
<rect width="80%" height="75%" fill="#FFFFFF"/>

<g transform="translate(0.000000,254.000000) scale(0.100000,-0.100000)"
fill="#FF0000" stroke="none">
<path d="M275 2516 c-111 -35 -198 -114 -235 -212 -20 -55 -20 -65 -18 -1057
l3 -1002 27 -50 c35 -68 97 -128 166 -162 l57 -28 1005 0 1005 0 67 33 c77 38
130 92 167 171 l26 56 3 974 c2 870 1 980 -14 1030 -31 108 -98 186 -201 234
l-48 22 -985 2 c-777 1 -993 -1 -1025 -11z m1667 -643 c11 -10 18 -30 18 -51
0 -66 -36 -116 -181 -255 l-140 -133 57 -443 56 -444 -36 -35 c-23 -23 -39
-33 -45 -27 -5 6 -48 117 -95 248 l-85 237 -77 85 c-42 47 -81 85 -86 85 -4 0
-65 -53 -134 -117 -70 -65 -139 -127 -155 -138 l-29 -20 0 -145 c0 -115 -3
-150 -16 -168 -19 -28 -47 -43 -62 -33 -7 4 -30 56 -51 115 -22 59 -41 110
-44 113 -3 2 -19 -3 -37 -12 -38 -20 -84 -16 -88 7 -2 13 16 64 35 99 2 3 -46
28 -106 54 -61 27 -113 55 -116 64 -4 10 5 26 26 45 32 28 34 28 113 22 45 -4
110 -9 146 -12 l65 -5 153 149 153 148 -88 91 -88 92 -232 101 c-128 56 -233
106 -233 110 0 9 67 70 78 70 7 0 815 -165 855 -174 14 -3 57 31 147 115 172
160 270 210 322 162z"/>
</g>
</svg>
